<?xml version="1.0" encoding="UTF-8" standalone="no"?>
<!-- Created with Inkscape (http://www.inkscape.org/) -->

<svg
   xmlns:dc="http://purl.org/dc/elements/1.1/"
   xmlns:cc="http://creativecommons.org/ns#"
   xmlns:rdf="http://www.w3.org/1999/02/22-rdf-syntax-ns#"
   xmlns:svg="http://www.w3.org/2000/svg"
   xmlns="http://www.w3.org/2000/svg"
   xmlns:sodipodi="http://sodipodi.sourceforge.net/DTD/sodipodi-0.dtd"
   xmlns:inkscape="http://www.inkscape.org/namespaces/inkscape"
   width="210mm"
   height="297mm"
   viewBox="0 0 744.09448819 1052.3622047"
   id="svg2"
   version="1.1"
   inkscape:version="0.91 r13725"
   sodipodi:docname="tickcross.svg">
  <defs
     id="defs4" />
  <sodipodi:namedview
     id="base"
     pagecolor="#ffffff"
     bordercolor="#666666"
     borderopacity="1.0"
     inkscape:pageopacity="0.0"
     inkscape:pageshadow="2"
     inkscape:zoom="0.98994949"
     inkscape:cx="144.0123"
     inkscape:cy="380.95077"
     inkscape:document-units="px"
     inkscape:current-layer="layer1"
     showgrid="false"
     inkscape:window-width="1920"
     inkscape:window-height="1017"
     inkscape:window-x="-8"
     inkscape:window-y="-8"
     inkscape:window-maximized="1" />
  <metadata
     id="metadata7">
    <rdf:RDF>
      <cc:Work
         rdf:about="">
        <dc:format>image/svg+xml</dc:format>
        <dc:type
           rdf:resource="http://purl.org/dc/dcmitype/StillImage" />
        <dc:title />
      </cc:Work>
    </rdf:RDF>
  </metadata>
  <g
     inkscape:label="Layer 1"
     inkscape:groupmode="layer"
     id="layer1">
    <path
       sodipodi:type="inkscape:offset"
       inkscape:radius="24.615446"
       inkscape:original="M 263.17969 346.33789 L 114.95508 534.4668 L 38.210938 457.72266 L 37.503906 458.42969 L 115.04492 535.9707 L 263.96484 346.95703 L 263.17969 346.33789 z "
       style="color:#000000;font-style:normal;font-variant:normal;font-weight:normal;font-stretch:normal;font-size:medium;line-height:normal;font-family:sans-serif;text-indent:0;text-align:start;text-decoration:none;text-decoration-line:none;text-decoration-style:solid;text-decoration-color:#000000;letter-spacing:normal;word-spacing:normal;text-transform:none;direction:ltr;block-progression:tb;writing-mode:lr-tb;baseline-shift:baseline;text-anchor:start;white-space:normal;clip-rule:nonzero;display:inline;overflow:visible;visibility:visible;opacity:1;isolation:auto;mix-blend-mode:normal;color-interpolation:sRGB;color-interpolation-filters:linearRGB;solid-color:#000000;solid-opacity:1;fill:#00ca00;fill-opacity:1;fill-rule:evenodd;stroke:none;stroke-width:1px;stroke-linecap:butt;stroke-linejoin:miter;stroke-miterlimit:4;stroke-dasharray:none;stroke-dashoffset:0;stroke-opacity:1;color-rendering:auto;image-rendering:auto;shape-rendering:auto;text-rendering:auto;enable-background:accumulate"
       id="path4148"
       d="m 262.38281,321.73633 a 24.617908,24.617908 0 0 0 -18.53906,9.36719 L 112.76758,497.4668 55.617188,440.31641 a 24.617908,24.617908 0 0 0 -34.8125,0 l -0.707032,0.70703 a 24.617908,24.617908 0 0 0 0,34.8125 l 77.541016,77.54101 a 24.617908,24.617908 0 0 0 36.742188,-2.17187 L 283.30078,362.19141 a 24.617908,24.617908 0 0 0 -4.09375,-34.5625 l -0.78515,-0.61914 a 24.617908,24.617908 0 0 0 -16.03907,-5.27344 z"
       transform="translate(0,103.20768)"
       inkscape:export-xdpi="16.322605"
       inkscape:export-ydpi="16.322605" />
    <g
       id="g4158"
       inkscape:export-xdpi="17.538376"
       inkscape:export-ydpi="17.538376">
      <path
         sodipodi:type="inkscape:offset"
         inkscape:radius="17.434292"
         inkscape:original="M 68.230469 461.15234 L 67.523438 461.85938 L 150.02734 544.36328 L 67.523438 626.86523 L 68.230469 627.57227 L 150.73438 545.06836 L 233.23828 627.57227 L 233.94531 626.86523 L 151.44141 544.36328 L 233.94531 461.85938 L 233.23828 461.15234 L 150.73438 543.65625 L 68.230469 461.15234 z "
         style="color:#000000;font-style:normal;font-variant:normal;font-weight:normal;font-stretch:normal;font-size:medium;line-height:normal;font-family:sans-serif;text-indent:0;text-align:start;text-decoration:none;text-decoration-line:none;text-decoration-style:solid;text-decoration-color:#000000;letter-spacing:normal;word-spacing:normal;text-transform:none;direction:ltr;block-progression:tb;writing-mode:lr-tb;baseline-shift:baseline;text-anchor:start;white-space:normal;clip-rule:nonzero;display:inline;overflow:visible;visibility:visible;opacity:1;isolation:auto;mix-blend-mode:normal;color-interpolation:sRGB;color-interpolation-filters:linearRGB;solid-color:#000000;solid-opacity:1;fill:#ff0000;fill-opacity:1;fill-rule:evenodd;stroke:none;stroke-width:1px;stroke-linecap:butt;stroke-linejoin:miter;stroke-miterlimit:4;stroke-dasharray:none;stroke-dashoffset:0;stroke-opacity:1;color-rendering:auto;image-rendering:auto;shape-rendering:auto;text-rendering:auto;enable-background:accumulate"
         id="path4169"
         d="m 67.974609,443.7207 a 17.436035,17.436035 0 0 0 -12.072265,5.10352 l -0.707032,0.70703 a 17.436035,17.436035 0 0 0 0,24.65625 l 70.175778,70.17578 -70.175778,70.17383 a 17.436035,17.436035 0 0 0 0,24.65625 l 0.707032,0.70703 a 17.436035,17.436035 0 0 0 24.65625,0 l 70.175786,-70.17578 70.17578,70.17578 a 17.436035,17.436035 0 0 0 24.65625,0 l 0.70703,-0.70703 a 17.436035,17.436035 0 0 0 0,-24.65625 l -70.17578,-70.17383 70.17578,-70.17578 a 17.436035,17.436035 0 0 0 0,-24.65625 l -0.70703,-0.70703 a 17.436035,17.436035 0 0 0 -24.65625,0 L 150.73438,519 80.558594,448.82422 A 17.436035,17.436035 0 0 0 67.974609,443.7207 Z"
         transform="matrix(1.2746924,0,0,1.2746924,256.41821,-140.96075)" />
    </g>
  </g>
</svg>
